<svg width="750" height="688" viewbox="0 0 750 688" fill="none" xmlns="http://www.w3.org/2000/svg">
  <g clip-path="url(#clip0_1565_2)">
    <path d="M128.605 -0.0412598H612.404V687.93H541.388V372.795H540.692C532.842 285.699 459.644 217.446 370.505 217.446C281.366 217.446 208.167 285.699 200.318 372.795H199.622V687.93H128.605V-0.0412598Z" fill="black"/>
    <path d="M-0.111328 97.6055L28.7392 195.253H53.1506V590.283C40.894 590.283 30.9582 600.218 30.9582 612.475V639.106H26.5202C14.2635 639.106 4.32674 649.042 4.32674 661.299V687.93H252.884V661.299C252.884 649.042 242.949 639.106 230.692 639.106H226.254V612.475C226.254 600.218 216.317 590.283 204.06 590.283H177.43V97.6055H-0.111328Z" fill="black"/>
    <path d="M545.83 590.283C533.573 590.283 523.636 600.218 523.636 612.475V639.106H519.198C506.942 639.106 497.006 649.042 497.006 661.299V687.93H745.563V661.299C745.563 649.042 735.627 639.106 723.37 639.106H718.932V612.475C718.932 600.218 708.996 590.283 696.74 590.283V195.253H721.151L750.002 97.6055H572.46V590.283H545.83Z" fill="black"/>
  </g>
  <defs>
    <clipPath id="clip0_1565_2">
      <rect width="750" height="688" fill="white"/>
    </clipPath>
  </defs>
</svg>